<?xml version="1.0" encoding="UTF-8"?>
<svg version="1.1" xmlns="http://www.w3.org/2000/svg" width="388" height="130">
<path d="M0 0 C128.04 0 256.08 0 388 0 C388 42.9 388 85.8 388 130 C259.96 130 131.92 130 0 130 C0 87.1 0 44.2 0 0 Z " fill="#FAFAFA" transform="translate(0,0)"/>
<path d="M0 0 C0.68501587 0.00100708 1.37003174 0.00201416 2.07580566 0.00305176 C4.62998127 0.00827618 7.18413297 0.02223746 9.73828125 0.03515625 C15.45140625 0.05578125 21.16453125 0.07640625 27.05078125 0.09765625 C27.05078125 21.87765625 27.05078125 43.65765625 27.05078125 66.09765625 C13.85078125 66.09765625 0.65078125 66.09765625 -12.94921875 66.09765625 C-13.71887057 63.01904897 -14.14058351 60.55369692 -14.33813477 57.44018555 C-14.39812149 56.52210617 -14.45810822 55.60402679 -14.51991272 54.65812683 C-14.58037277 53.67266373 -14.64083282 52.68720062 -14.703125 51.671875 C-14.76829819 50.65092239 -14.83347137 49.62996979 -14.90061951 48.57807922 C-15.03764886 46.41878227 -15.17286291 44.25936947 -15.30639648 42.09985352 C-15.51031582 38.80780499 -15.72051157 35.51620253 -15.93164062 32.22460938 C-16.06417634 30.12372149 -16.1963496 28.02281071 -16.328125 25.921875 C-16.39060928 24.94248459 -16.45309357 23.96309418 -16.51747131 22.95402527 C-17.38011307 8.87577608 -17.38011307 8.87577608 -15.7421875 5.91796875 C-15.21238281 5.35851562 -14.68257812 4.7990625 -14.13671875 4.22265625 C-13.61464844 3.64773437 -13.09257813 3.0728125 -12.5546875 2.48046875 C-8.91408285 -0.65523453 -4.51965223 -0.03123107 0 0 Z " fill="#5A5B5D" transform="translate(49.94921875,5.90234375)"/>
<path d="M0 0 C4.73222455 -0.07445407 9.46410411 -0.1287447 14.19677734 -0.16479492 C15.80491072 -0.17983176 17.41300344 -0.20026672 19.02099609 -0.22631836 C21.33962064 -0.26292822 23.65770049 -0.27977722 25.9765625 -0.29296875 C27.04567368 -0.31619453 27.04567368 -0.31619453 28.13638306 -0.33988953 C33.68296676 -0.3417371 37.72859281 0.92985674 41.8515625 4.6875 C43.53625225 8.07980044 43.43966337 11.29658719 43.375 15 C43.36847412 15.83072021 43.36194824 16.66144043 43.35522461 17.51733398 C43.1692092 27.05416865 42.35089991 36.56031777 41.5625 46.0625 C41.49528748 46.87565674 41.42807495 47.68881348 41.35882568 48.52661133 C41.16280365 50.86332122 40.96004638 53.19931905 40.75390625 55.53515625 C40.66317085 56.59803612 40.66317085 56.59803612 40.57060242 57.68238831 C40.30115116 60.6332722 39.94143162 63.17570514 39 66 C38.01 66 37.02 66 36 66 C36.08701172 64.7315625 36.08701172 64.7315625 36.17578125 63.4375 C36.47827718 55.83188815 36.20593648 50.74904945 31 45 C27.28545759 41.12143883 23.05587901 38.37091857 18.5 35.5625 C9.34578263 29.83640518 3.75555138 23.50938204 0.75 13.0625 C0.09473766 10.07593283 -0.08060139 7.30114271 -0.046875 4.24609375 C-0.04010742 3.44743896 -0.03333984 2.64878418 -0.02636719 1.82592773 C-0.01766602 1.22337158 -0.00896484 0.62081543 0 0 Z " fill="#5A5B5D" transform="translate(81,6)"/>
<path d="M0 0 C12.54 0 25.08 0 38 0 C32.77136553 15.68590342 22.66782246 25.85385127 8.2265625 33.4609375 C2.66223404 36 2.66223404 36 0 36 C0 24.12 0 12.24 0 0 Z " fill="#D2242B" transform="translate(81,76)"/>
<path d="M0 0 C3.63 0 7.26 0 11 0 C14.26332194 6.30958807 17.06428873 12.73819374 19.75 19.3125 C20.16121094 20.30056641 20.57242187 21.28863281 20.99609375 22.30664062 C21.57810547 23.72686523 21.57810547 23.72686523 22.171875 25.17578125 C22.5234668 26.03083252 22.87505859 26.88588379 23.23730469 27.7668457 C24 30 24 30 24 33 C24.66 33 25.32 33 26 33 C26.23456909 32.12819092 26.23456909 32.12819092 26.47387695 31.23876953 C28.47313856 24.17216206 31.19972586 17.57511547 34.1875 10.875 C34.88262695 9.2971875 34.88262695 9.2971875 35.59179688 7.6875 C36.72264409 5.12269189 37.86058433 2.56101308 39 0 C42.63 0 46.26 0 50 0 C50 0.66 50 1.32 50 2 C48.02 2.99 48.02 2.99 46 4 C45.85820498 11.52984095 46.28675544 18.93778438 46.9375 26.4375 C47.06801758 28.04915039 47.06801758 28.04915039 47.20117188 29.69335938 C47.63142995 37.61905558 47.63142995 37.61905558 52 44 C46.72 44 41.44 44 36 44 C37.32 42.68 38.64 41.36 40 40 C41.90485554 31.05686465 39.09390255 20.02211874 38 11 C37.43285278 12.44620728 37.43285278 12.44620728 36.85424805 13.92163086 C35.4509685 17.49125935 34.03305213 21.05491809 32.6105957 24.61694336 C31.99654517 26.16059592 31.3864973 27.70584688 30.78051758 29.25268555 C29.90968887 31.47354796 29.02471185 33.68829814 28.13671875 35.90234375 C27.86784348 36.5971434 27.5989682 37.29194305 27.32194519 38.00779724 C26.63164295 39.7082829 25.82437124 41.36031079 25 43 C23.515 43.495 23.515 43.495 22 44 C17.71 33.77 13.42 23.54 9 13 C8.67 13 8.34 13 8 13 C7.30616061 19.65342414 6.84529036 26.31281159 6.6875 33 C6.65011719 34.2375 6.61273438 35.475 6.57421875 36.75 C6.73618137 40.54853162 6.73618137 40.54853162 11 44 C6.38 44 1.76 44 -3 44 C-1.68 42.68 -0.36 41.36 1 40 C1.8777705 37.12130123 1.8777705 37.12130123 2.1875 33.9375 C2.33316406 32.7825 2.47882813 31.6275 2.62890625 30.4375 C2.75136719 29.303125 2.87382812 28.16875 3 27 C3.11214844 26.05125 3.22429687 25.1025 3.33984375 24.125 C4.05215308 17.41172855 4.10595274 10.74565762 4 4 C2.68 3.34 1.36 2.68 0 2 C0 1.34 0 0.68 0 0 Z " fill="#231F20" transform="translate(269,37)"/>
<path d="M0 0 C3.96 0 7.92 0 12 0 C12.38857178 0.93384521 12.77714355 1.86769043 13.17749023 2.82983398 C14.61559414 6.28416255 16.0569324 9.73713356 17.49926758 13.18969727 C18.12385391 14.68607154 18.74755462 16.18281579 19.37036133 17.67993164 C20.2641281 19.82795823 21.16103935 21.97464756 22.05859375 24.12109375 C22.3377916 24.79401962 22.61698944 25.4669455 22.90464783 26.16026306 C24.07756457 29.31169389 24.07756457 29.31169389 26 32 C30.29 21.44 34.58 10.88 39 0 C42.63 0 46.26 0 50 0 C50 0.66 50 1.32 50 2 C48.68 2.33 47.36 2.66 46 3 C46.23687725 7.76953492 46.48539445 12.5382685 46.74462891 17.30664062 C46.83115194 18.92821837 46.91451455 20.549968 46.99462891 22.171875 C47.11046386 24.50573482 47.23772206 26.83873647 47.3671875 29.171875 C47.40061249 29.89493835 47.43403748 30.61800171 47.46847534 31.36297607 C47.75540658 36.49648288 47.75540658 36.49648288 50 41 C50.99 41.33 51.98 41.66 53 42 C53 42.66 53 43.32 53 44 C47.72 44 42.44 44 37 44 C37 43.34 37 42.68 37 42 C37.99 41.67 38.98 41.34 40 41 C40.05474393 38.2080595 40.09402442 35.41722767 40.125 32.625 C40.14175781 31.85027344 40.15851563 31.07554688 40.17578125 30.27734375 C40.22738755 24.03298096 39.2759874 19.37993699 38 13 C33.71 23.23 29.42 33.46 25 44 C22 43 22 43 20.46606445 39.94897461 C19.92035873 38.604687 19.38688733 37.25539238 18.86328125 35.90234375 C18.57897751 35.19348526 18.29467377 34.48462677 18.00175476 33.75428772 C17.0948191 31.48605097 16.20355067 29.21201776 15.3125 26.9375 C14.7008906 25.39998417 14.08827284 23.86286903 13.47460938 22.32617188 C11.97132652 18.55533375 10.48206727 14.77922416 9 11 C8.65988375 14.16597571 8.32916813 17.3328688 8 20.5 C7.85691406 21.8303125 7.85691406 21.8303125 7.7109375 23.1875 C7.16566362 28.48444631 6.67030555 33.67778964 7 39 C9.33336666 42.00333267 9.33336666 42.00333267 12 44 C7.38 44 2.76 44 -2 44 C-2 43.34 -2 42.68 -2 42 C-0.515 41.505 -0.515 41.505 1 41 C3.16586065 37.00066326 3.45880621 32.99271097 3.8515625 28.51171875 C3.91532074 27.80852005 3.97907898 27.10532135 4.04476929 26.3808136 C4.24535915 24.15027853 4.43533198 21.9189876 4.625 19.6875 C4.75971488 18.16855739 4.89512422 16.6496762 5.03125 15.13085938 C5.36220716 11.42124983 5.68365374 7.71088739 6 4 C4.02 3.34 2.04 2.68 0 2 C0 1.34 0 0.68 0 0 Z " fill="#252123" transform="translate(190,37)"/>
<path d="M0 0 C4.24167798 -0.86610179 7.77188037 -1.01769856 12 0 C15.86479379 3.24706036 18.68134496 6.9950874 21.61035156 11.08300781 C23.49131405 13.67775789 25.48779075 16.1724399 27.48608398 18.67724609 C28.86652753 20.41086956 30.23106469 22.15561908 31.58984375 23.90625 C33.70547789 26.62194245 35.84665915 29.31422253 38 32 C38.02891546 27.54168018 38.04676981 23.08338431 38.0625 18.625 C38.07506836 16.71847656 38.07506836 16.71847656 38.08789062 14.7734375 C38.09111328 13.56171875 38.09433594 12.35 38.09765625 11.1015625 C38.10289307 9.98088379 38.10812988 8.86020508 38.11352539 7.70556641 C38.18621466 5.03132657 38.18621466 5.03132657 37 3 C34.97536745 2.34786708 34.97536745 2.34786708 33 2 C33 1.34 33 0.68 33 0 C37.62 0 42.24 0 47 0 C47 0.66 47 1.32 47 2 C45.02 2.99 45.02 2.99 43 4 C42.67 17.53 42.34 31.06 42 45 C37.68252701 42.84126351 35.73334437 40.43171005 32.9375 36.6875 C31.96571186 35.41630676 30.99169364 34.14681572 30.015625 32.87890625 C29.51869141 32.23324707 29.02175781 31.58758789 28.50976562 30.92236328 C25.3381173 26.88394819 21.95953058 23.01966781 18.60546875 19.1328125 C15.56520286 15.5525538 12.78412076 11.78072652 10 8 C9.92581954 12.35990873 9.87138456 16.71948279 9.83520508 21.07983398 C9.82012232 22.56297199 9.79965311 24.04606544 9.77368164 25.52905273 C9.73727384 27.66140745 9.72026927 29.79317235 9.70703125 31.92578125 C9.6913208 33.20880127 9.67561035 34.49182129 9.65942383 35.8137207 C9.7155905 38.95565284 9.7155905 38.95565284 11.39331055 40.81713867 C12.18862183 41.40265503 12.18862183 41.40265503 13 42 C13.66 42.66 14.32 43.32 15 44 C10.71 44 6.42 44 2 44 C3.98 41.525 3.98 41.525 6 39 C6.37863399 36.32137184 6.53975654 34.06709308 6.49609375 31.3984375 C6.49754898 30.68015778 6.49900421 29.96187805 6.50050354 29.22183228 C6.4988501 27.71067223 6.48735099 26.19949438 6.46655273 24.68847656 C6.43749907 22.37492621 6.44597252 20.06365586 6.45898438 17.75 C6.45274918 16.2786347 6.44435995 14.80727662 6.43359375 13.3359375 C6.43652939 12.64527191 6.43946503 11.95460632 6.44248962 11.24301147 C6.38659146 8.40354444 6.32591325 6.4612798 4.66040039 4.10400391 C2.87638181 2.81327296 2.87638181 2.81327296 0 2 C0 1.34 0 0.68 0 0 Z " fill="#1F1B1C" transform="translate(140,37)"/>
<path d="M0 0 C1.89492188 0.15275391 1.89492188 0.15275391 3.828125 0.30859375 C4.79234375 0.39238281 5.7565625 0.47617187 6.75 0.5625 C6.75 4.1925 6.75 7.8225 6.75 11.5625 C6.09 11.5625 5.43 11.5625 4.75 11.5625 C4.29625 10.428125 3.8425 9.29375 3.375 8.125 C2.17904194 4.51528308 2.17904194 4.51528308 -0.25 3.5625 C-2.12379605 3.49216231 -4.00001102 3.4781978 -5.875 3.5 C-7.37933594 3.51353516 -7.37933594 3.51353516 -8.9140625 3.52734375 C-10.07035156 3.54474609 -10.07035156 3.54474609 -11.25 3.5625 C-11.270625 4.820625 -11.29125 6.07875 -11.3125 7.375 C-11.32410156 8.08269531 -11.33570313 8.79039063 -11.34765625 9.51953125 C-11.33263217 11.76555461 -11.33263217 11.76555461 -10.25 14.5625 C-8.47167759 15.61945129 -8.47167759 15.61945129 -6.25 16.5625 C6.23053393 23.68374583 6.23053393 23.68374583 8.75 29.5625 C9.39805123 33.4662372 9.11933394 36.68776172 7.5625 40.375 C5.32462346 43.07588548 4.04700178 44.25743679 0.75 45.5625 C-3.64290356 45.92150401 -8.11865564 46.13498451 -12.40234375 44.984375 C-14.46416386 44.34529279 -14.46416386 44.34529279 -17.25 45.5625 C-17.25 41.6025 -17.25 37.6425 -17.25 33.5625 C-16.59 33.5625 -15.93 33.5625 -15.25 33.5625 C-14.816875 34.67625 -14.38375 35.79 -13.9375 36.9375 C-12.55088881 40.73762334 -12.55088881 40.73762334 -9.25 42.5625 C-3.63659732 43.18092364 -3.63659732 43.18092364 1.25 40.875 C3.05722495 38.08886154 3.14717398 36.829256 2.75 33.5625 C1.31061984 31.65997355 1.31061984 31.65997355 -0.75 30.125 C-1.83861328 29.23554687 -1.83861328 29.23554687 -2.94921875 28.328125 C-5.75843257 26.17232764 -8.59248277 24.05775047 -11.48828125 22.01953125 C-14.39894291 19.61226562 -16.04354533 17.71692569 -16.71875 13.94140625 C-16.80319472 6.330826 -16.80319472 6.330826 -14 2.4375 C-9.22378154 -0.81901259 -5.71518992 -0.47626583 0 0 Z " fill="#242122" transform="translate(344.25,36.4375)"/>
<path d="M0 0 C3.63 0 7.26 0 11 0 C11 0.66 11 1.32 11 2 C9.68 2.33 8.36 2.66 7 3 C7.23687725 7.76953492 7.48539445 12.5382685 7.74462891 17.30664062 C7.83115194 18.92821837 7.91451455 20.549968 7.99462891 22.171875 C8.11046386 24.50573482 8.23772206 26.83873647 8.3671875 29.171875 C8.40061249 29.89493835 8.43403748 30.61800171 8.46847534 31.36297607 C8.75540658 36.49648288 8.75540658 36.49648288 11 41 C11.99 41.33 12.98 41.66 14 42 C14 42.66 14 43.32 14 44 C8.72 44 3.44 44 -2 44 C-2 43.34 -2 42.68 -2 42 C-0.515 41.505 -0.515 41.505 1 41 C1.39242285 26.86976499 1.39242285 26.86976499 -1 13 C-1.66 13 -2.32 13 -3 13 C-4.62606171 8.12181488 -1.98121921 4.62284482 0 0 Z " fill="#282425" transform="translate(229,37)"/>
<path d="M0 0 C5.28 0 10.56 0 16 0 C16 0.66 16 1.32 16 2 C14.02 2.99 14.02 2.99 12 4 C11.9011636 9.21438043 11.82854794 14.42821643 11.78027344 19.64331055 C11.76015097 21.41749569 11.7328497 23.19161446 11.69824219 24.96557617 C11.64975008 27.51497767 11.62703847 30.06350295 11.609375 32.61328125 C11.58872986 33.40712723 11.56808472 34.20097321 11.54681396 35.01887512 C11.50052713 37.5190845 11.50052713 37.5190845 12 41 C13.32 41.99 14.64 42.98 16 44 C10.72 44 5.44 44 0 44 C1.32 42.68 2.64 41.36 4 40 C4.34898973 37.04071721 4.46784199 34.46546479 4.390625 31.515625 C4.38213531 30.29223419 4.38213531 30.29223419 4.37347412 29.04412842 C4.35112727 26.44548228 4.30093622 23.84822758 4.25 21.25 C4.22993271 19.48569703 4.21168234 17.7213724 4.1953125 15.95703125 C4.1512683 11.63748672 4.08225422 7.31897907 4 3 C2.68 2.67 1.36 2.34 0 2 C0 1.34 0 0.68 0 0 Z " fill="#1C1819" transform="translate(247,37)"/>
<path d="M0 0 C12.21 0 24.42 0 37 0 C37 1.98 37 3.96 37 6 C25.45 6 13.9 6 2 6 C1.34 4.02 0.68 2.04 0 0 Z " fill="#1B1718" transform="translate(39,77)"/>
<path d="M0 0 C9.57 0 19.14 0 29 0 C29 2.31 29 4.62 29 7 C25.10456123 7.14553599 21.20982349 7.23415059 17.3125 7.3125 C15.65831055 7.3753418 15.65831055 7.3753418 13.97070312 7.43945312 C4.8248553 7.57760793 4.8248553 7.57760793 1.73046875 4.60546875 C0 2 0 2 0 0 Z " fill="#1E1A1B" transform="translate(47,91)"/>
<path d="M0 0 C0.66 0.33 1.32 0.66 2 1 C2.33 1.99 2.66 2.98 3 4 C3.66 3.34 4.32 2.68 5 2 C5.99 2.33 6.98 2.66 8 3 C6.35 5.31 4.7 7.62 3 10 C3.33 10.66 3.66 11.32 4 12 C1.8125 14.0625 1.8125 14.0625 -1 16 C-3.6875 15.6875 -3.6875 15.6875 -6 15 C-6.99 15.495 -6.99 15.495 -8 16 C-8.2953708 12.91740292 -8.31217173 11.44502811 -6.50390625 8.8671875 C-5.86324219 8.20976563 -5.22257812 7.55234375 -4.5625 6.875 C-2.22262944 4.44531623 -1.08270157 3.2481047 0 0 Z " fill="#D9D9D9" transform="translate(116,90)"/>
<path d="M0 0 C0.53625 0.680625 1.0725 1.36125 1.625 2.0625 C2.91325333 3.65586596 4.2182237 5.23844931 5.6015625 6.75 C6.14554688 7.348125 6.68953125 7.94625 7.25 8.5625 C7.77078125 9.12066406 8.2915625 9.67882812 8.828125 10.25390625 C10 12 10 12 10 16 C3.4704 16.3696 3.4704 16.3696 1.25 14.625 C0.8375 14.08875 0.425 13.5525 0 13 C-0.99 12.34 -1.98 11.68 -3 11 C1.75 9.875 1.75 9.875 4 11 C4 10.34 4 9.68 4 9 C2.39125 8.938125 2.39125 8.938125 0.75 8.875 C-3 8 -3 8 -5.4375 4.9375 C-6.2109375 3.4834375 -6.2109375 3.4834375 -7 2 C-4.525 2.495 -4.525 2.495 -2 3 C-1.34 2.01 -0.68 1.02 0 0 Z " fill="#868788" transform="translate(40,90)"/>
<path d="M0 0 C2.18197853 3.27296779 2.20967027 3.96972599 2.01953125 7.7109375 C1.99052734 8.62617187 1.96152344 9.54140625 1.93164062 10.484375 C1.85251357 12.4041789 1.76145514 14.32352987 1.65820312 16.2421875 C1.38606523 21.24303812 1.38606523 21.24303812 3.12646484 25.77832031 C4.61330489 27.3346688 4.61330489 27.3346688 7 29 C2.38 29 -2.24 29 -7 29 C-7 28.34 -7 27.68 -7 27 C-6.01 26.67 -5.02 26.34 -4 26 C-2.29896806 22.67354558 -1.68473861 19.61517093 -1.3671875 15.91796875 C-1.28339844 14.98662109 -1.19960937 14.05527344 -1.11328125 13.09570312 C-1.03464844 12.13599609 -0.95601562 11.17628906 -0.875 10.1875 C-0.78863281 9.20845703 -0.70226562 8.22941406 -0.61328125 7.22070312 C-0.40198821 4.81431022 -0.19779237 2.40753388 0 0 Z " fill="#151012" transform="translate(195,52)"/>
<path d="M0 0 C0.66 0.33 1.32 0.66 2 1 C2.01458252 1.92337158 2.02916504 2.84674316 2.04418945 3.7980957 C2.10526308 7.22577204 2.1794161 10.65264662 2.26245117 14.07983398 C2.29569423 15.56279854 2.32372823 17.04588944 2.34643555 18.52905273 C2.37999468 20.66184293 2.43230638 22.79347612 2.48828125 24.92578125 C2.51446533 26.20880127 2.54064941 27.49182129 2.56762695 28.8137207 C2.72340828 31.95580908 2.72340828 31.95580908 4.40698242 33.81713867 C5.19552612 34.40265503 5.19552612 34.40265503 6 35 C6.66 35.66 7.32 36.32 8 37 C3.71 37 -0.58 37 -5 37 C-3.02 34.525 -3.02 34.525 -1 32 C-0.36134966 28.42999366 -0.36134966 28.42999366 -0.390625 24.51171875 C-0.37408875 23.80852005 -0.35755249 23.10532135 -0.34051514 22.3808136 C-0.2921906 20.14961888 -0.2707009 17.9191048 -0.25 15.6875 C-0.22182698 14.16858583 -0.19189768 12.64970316 -0.16015625 11.13085938 C-0.08643889 7.42072029 -0.03676795 3.7107102 0 0 Z " fill="#030000" transform="translate(147,44)"/>
<path d="M0 0 C4.62 0 9.24 0 14 0 C14 0.66 14 1.32 14 2 C12.02 2.99 12.02 2.99 10 4 C9.67 17.53 9.34 31.06 9 45 C8.34 44.67 7.68 44.34 7 44 C7.01571045 42.86457764 7.0314209 41.72915527 7.04760742 40.55932617 C7.10188032 36.34943731 7.13634037 32.13957941 7.16479492 27.92944336 C7.1798876 26.10679933 7.20036395 24.28419164 7.22631836 22.46166992 C7.26268103 19.842845 7.27972124 17.22449993 7.29296875 14.60546875 C7.30845261 13.78974899 7.32393646 12.97402924 7.33988953 12.1335907 C7.47436937 7.91529595 7.47436937 7.91529595 5.61543274 4.30366516 C3.7675265 2.81239231 2.31982579 2.39996996 0 2 C0 1.34 0 0.68 0 0 Z " fill="#545152" transform="translate(173,37)"/>
<path d="M0 0 C1.89492188 0.15275391 1.89492188 0.15275391 3.828125 0.30859375 C4.79234375 0.39238281 5.7565625 0.47617187 6.75 0.5625 C6.75 4.1925 6.75 7.8225 6.75 11.5625 C6.09 11.5625 5.43 11.5625 4.75 11.5625 C4.069375 9.8609375 4.069375 9.8609375 3.375 8.125 C2.17904194 4.51528308 2.17904194 4.51528308 -0.25 3.5625 C-1.95702735 3.49253986 -3.66668003 3.47809846 -5.375 3.5 C-6.28507812 3.50902344 -7.19515625 3.51804688 -8.1328125 3.52734375 C-9.18082031 3.54474609 -9.18082031 3.54474609 -10.25 3.5625 C-10.58 2.5725 -10.91 1.5825 -11.25 0.5625 C-7.43483536 -0.73812431 -3.97438237 -0.33119853 0 0 Z " fill="#3C393A" transform="translate(344.25,36.4375)"/>
<path d="M0 0 C1.1774734 0.73291712 2.34176854 1.48703801 3.5 2.25 C4.1496875 2.66765625 4.799375 3.0853125 5.46875 3.515625 C6.22671875 4.25039062 6.22671875 4.25039062 7 5 C7 6.32 7 7.64 7 9 C-1.03501094 10.61050328 -1.03501094 10.61050328 -5.0625 8.0625 C-5.701875 7.381875 -6.34125 6.70125 -7 6 C-6 5 -6 5 -2.9375 4.9375 C-1.4834375 4.9684375 -1.4834375 4.9684375 0 5 C0 3.35 0 1.7 0 0 Z " fill="#666668" transform="translate(59,109)"/>
<path d="M0 0 C5.41139241 -0.36075949 5.41139241 -0.36075949 7.9375 1.1875 C9 3 9 3 8.875 5.5625 C8 8 8 8 5 10 C3.68 10 2.36 10 1 10 C0.67 6.7 0.34 3.4 0 0 Z " fill="#949495" transform="translate(140,105)"/>
<path d="M0 0 C6 0 6 0 9 2 C8.7525 2.845625 8.505 3.69125 8.25 4.5625 C7.90734822 9.27396201 9.43198614 11.1090699 12 15 C7.79373966 13.49776416 6.26099979 10.71449966 4 7 C4.66 6.67 5.32 6.34 6 6 C6.65213292 3.97536745 6.65213292 3.97536745 7 2 C5.68 2 4.36 2 3 2 C3 5.63 3 9.26 3 13 C2.01 12.67 1.02 12.34 0 12 C0 8.04 0 4.08 0 0 Z " fill="#777879" transform="translate(291,103)"/>
<path d="M0 0 C1.2452444 2.24143992 2.00291885 4.01709614 2.4375 6.5625 C2.77651916 9.07634713 2.77651916 9.07634713 4.625 10.5 C5.07875 10.995 5.5325 11.49 6 12 C5.6875 14.6875 5.6875 14.6875 5 17 C4.67 16.34 4.34 15.68 4 15 C2.824375 14.8453125 2.824375 14.8453125 1.625 14.6875 C-1 14 -1 14 -2.8125 11.4375 C-3.204375 10.633125 -3.59625 9.82875 -4 9 C-3.01 8.67 -2.02 8.34 -1 8 C-1.020625 7.05125 -1.04125 6.1025 -1.0625 5.125 C-1 2 -1 2 0 0 Z " fill="#7A7A7C" transform="translate(33,74)"/>
<path d="M0 0 C4.95 0 9.9 0 15 0 C15 2.31 15 4.62 15 7 C9.76727367 5.36041242 4.84803364 3.61047965 0 1 C0 0.67 0 0.34 0 0 Z " fill="#3B393B" transform="translate(62,105)"/>
<path d="M0 0 C2.97 0 5.94 0 9 0 C9 0.99 9 1.98 9 3 C7.35 2.67 5.7 2.34 4 2 C4 3.32 4 4.64 4 6 C5.65 5.67 7.3 5.34 9 5 C9 5.99 9 6.98 9 8 C7.35 7.67 5.7 7.34 4 7 C4 8.65 4 10.3 4 12 C5.98 11.67 7.96 11.34 10 11 C10 11.66 10 12.32 10 13 C7.03 13 4.06 13 1 13 C1.01740234 11.84371094 1.01740234 11.84371094 1.03515625 10.6640625 C1.04417969 9.66117188 1.05320312 8.65828125 1.0625 7.625 C1.07410156 6.62726563 1.08570313 5.62953125 1.09765625 4.6015625 C1.18006602 2.01567547 1.18006602 2.01567547 0 0 Z " fill="#878788" transform="translate(276,103)"/>
<path d="M0 0 C3.63 0 7.26 0 11 0 C10.67 0.99 10.34 1.98 10 3 C9.01 2.67 8.02 2.34 7 2 C7 5.63 7 9.26 7 13 C6.01 13 5.02 13 4 13 C4 9.37 4 5.74 4 2 C2.68 2.33 1.36 2.66 0 3 C0 2.01 0 1.02 0 0 Z " fill="#919091" transform="translate(328,103)"/>
<path d="M0 0 C0.66 0 1.32 0 2 0 C2.433125 1.11375 2.86625 2.2275 3.3125 3.375 C4.69911119 7.17512334 4.69911119 7.17512334 8 9 C9.9896995 9.39013716 11.99019869 9.73202649 14 10 C10.75617684 12.16254877 10.53500231 12.21192277 7 11.5625 C3.99137241 11.02117496 3.03393222 10.98868926 0 12 C0 8.04 0 4.08 0 0 Z " fill="#2A2627" transform="translate(327,70)"/>
<path d="M0 0 C0.33 0 0.66 0 1 0 C1 2.31 1 4.62 1 7 C1.99 7.33 2.98 7.66 4 8 C2.32482761 11.53647504 1.50719183 12.7911563 -2.1875 14.3125 C-3.5796875 14.6528125 -3.5796875 14.6528125 -5 15 C-4.67 12.36 -4.34 9.72 -4 7 C-3.01 7.33 -2.02 7.66 -1 8 C-1.20625 7.236875 -1.4125 6.47375 -1.625 5.6875 C-2 3 -2 3 0 0 Z " fill="#676869" transform="translate(124,76)"/>
<path d="M0 0 C2.93706939 2.78248679 5.43415863 5.87938211 8 9 C3.38 9 -1.24 9 -6 9 C-4.68 7.68 -3.36 6.36 -2 5 C-0.74563813 2.36777038 -0.74563813 2.36777038 0 0 Z " fill="#1E1B1C" transform="translate(272,72)"/>
<path d="M0 0 C0.66 0.33 1.32 0.66 2 1 C2 2.32 2 3.64 2 5 C2.99 4.34 3.98 3.68 5 3 C7.1875 3.375 7.1875 3.375 9 4 C6.8125 6.5625 6.8125 6.5625 4 9 C1.3125 8.75 1.3125 8.75 -1 8 C-1.99 8.495 -1.99 8.495 -3 9 C-3.26218749 5.85375007 -3.24754367 4.38162983 -1.5 1.6875 C-1.005 1.130625 -0.51 0.57375 0 0 Z " fill="#6B6C6D" transform="translate(111,97)"/>
<path d="M0 0 C0.86625 0.5259375 0.86625 0.5259375 1.75 1.0625 C4.38449209 2.16020504 5.35000247 1.82241303 8 1 C9 2 9 2 9.0625 4.5625 C9.041875 5.366875 9.02125 6.17125 9 7 C5.67465243 8.10844919 3.37817425 7.84454356 0 7 C0 4.69 0 2.38 0 0 Z " fill="#B3B3B3" transform="translate(190,107)"/>
<path d="M0 0 C2.5 2.25 2.5 2.25 5 5 C5 6.32 5 7.64 5 9 C-1.5296 9.3696 -1.5296 9.3696 -3.75 7.625 C-4.1625 7.08875 -4.575 6.5525 -5 6 C-5.99 5.34 -6.98 4.68 -8 4 C-5.6875 3.375 -5.6875 3.375 -3 3 C-2.01 3.66 -1.02 4.32 0 5 C0 3.35 0 1.7 0 0 Z " fill="#696A6C" transform="translate(45,97)"/>
<path d="M0 0 C5.14860706 1.28715177 5.86461447 2.90658001 9 7 C9.33 4.69 9.66 2.38 10 0 C10.33 0 10.66 0 11 0 C11 3.96 11 7.92 11 12 C8.33333333 9.33333333 5.66666667 6.66666667 3 4 C3 6.64 3 9.28 3 12 C2.01 11.67 1.02 11.34 0 11 C0 7.37 0 3.74 0 0 Z " fill="#68696A" transform="translate(236,104)"/>
<path d="M0 0 C0.66 0 1.32 0 2 0 C2 2.97 2 5.94 2 9 C-1.55780196 8.39009109 -4.6828589 7.4216319 -8 6 C-8.33 6.66 -8.66 7.32 -9 8 C-8.67 6.35 -8.34 4.7 -8 3 C-6.8553125 3.2784375 -6.8553125 3.2784375 -5.6875 3.5625 C-2.91032625 4.22819173 -2.91032625 4.22819173 0 3 C0 2.01 0 1.02 0 0 Z " fill="#A7A7A8" transform="translate(182,105)"/>
<path d="M0 0 C1.2065625 0.0309375 1.2065625 0.0309375 2.4375 0.0625 C2.1075 1.0525 1.7775 2.0425 1.4375 3.0625 C0.4475 2.7325 -0.5425 2.4025 -1.5625 2.0625 C-0.42945008 5.46164975 0.56268475 6.11504451 3.4375 8.0625 C3.1075 9.7125 2.7775 11.3625 2.4375 13.0625 C-0.57281744 13.99673645 -1.42900268 14.10699911 -4.5625 13.0625 C-4.5625 12.0725 -4.5625 11.0825 -4.5625 10.0625 C-3.9025 10.0625 -3.2425 10.0625 -2.5625 10.0625 C-2.5625 10.7225 -2.5625 11.3825 -2.5625 12.0625 C-1.2425 12.0625 0.0775 12.0625 1.4375 12.0625 C0.06766497 8.90134224 -0.5515638 8.0697908 -3.5625 6.0625 C-3.8125 3.5 -3.8125 3.5 -3.5625 1.0625 C-2.5625 0.0625 -2.5625 0.0625 0 0 Z " fill="#828384" transform="translate(310.5625,102.9375)"/>
<path d="M0 0 C1.82421875 0.9609375 1.82421875 0.9609375 3.6875 2.375 C4.31011719 2.83648437 4.93273437 3.29796875 5.57421875 3.7734375 C6.27998047 4.38058594 6.27998047 4.38058594 7 5 C7 5.33 7 5.66 7 6 C2.38 6 -2.24 6 -7 6 C-7 5.34 -7 4.68 -7 4 C-6.01 3.67 -5.02 3.34 -4 3 C-3.67 2.34 -3.34 1.68 -3 1 C-2.01 0.67 -1.02 0.34 0 0 Z " fill="#201C1D" transform="translate(195,75)"/>
<path d="M0 0 C0.66 0 1.32 0 2 0 C2 3.63 2 7.26 2 11 C2.66 11 3.32 11 4 11 C4 11.66 4 12.32 4 13 C2.68 13 1.36 13 0 13 C-0.33 11.68 -0.66 10.36 -1 9 C-1.66 9 -2.32 9 -3 9 C-2.44271087 5.65626525 -1.64826111 2.96687001 0 0 Z " fill="#828282" transform="translate(185,14)"/>
<path d="M0 0 C0.33 0 0.66 0 1 0 C1.375 2.75 1.375 2.75 1 6 C-2.12523569 8.63908792 -3.86465853 10 -8 10 C-7.875 8.25 -7.875 8.25 -7 6 C-5.03852126 4.61061923 -3.03833424 3.2739589 -1 2 C-0.67 1.34 -0.34 0.68 0 0 Z " fill="#636365" transform="translate(89,113)"/>
<path d="M0 0 C2.80063432 1.14194429 5.47332213 2.32801232 8 4 C9 6.75 9 6.75 9 9 C2.07692308 7 2.07692308 7 0 4 C0 2.68 0 1.36 0 0 Z " fill="#616264" transform="translate(67,114)"/>
<path d="M0 0 C1.125 3.75 1.125 3.75 0 6 C-1.66611905 6.042721 -3.33382885 6.04063832 -5 6 C-6 5 -6 5 -6.0625 2.4375 C-6.041875 1.633125 -6.02125 0.82875 -6 0 C-3.50907189 -1.24546405 -2.58919267 -0.7767578 0 0 Z " fill="#989898" transform="translate(359,27)"/>
<path d="M0 0 C4 1 4 1 5.265625 2.99609375 C5.59046875 3.80175781 5.9153125 4.60742188 6.25 5.4375 C6.58515625 6.24058594 6.9203125 7.04367188 7.265625 7.87109375 C8 10 8 10 8 12 C7.34 12 6.68 12 6 12 C5.71125 11.195625 5.4225 10.39125 5.125 9.5625 C4.26737432 6.8673532 4.26737432 6.8673532 2 6 C2 8.31 2 10.62 2 13 C1.34 12.67 0.68 12.34 0 12 C0 8.04 0 4.08 0 0 Z " fill="#595959" transform="translate(174,13)"/>
<path d="M0 0 C0.99 0.99 1.98 1.98 3 3 C1.35 6.3 -0.3 9.6 -2 13 C-2.99 12.67 -3.98 12.34 -5 12 C-3.35 8.04 -1.7 4.08 0 0 Z " fill="#2B2829" transform="translate(301,53)"/>
<path d="M0 0 C2.43929746 1.92576115 4.80090595 3.80090595 7 6 C2.71 6 -1.58 6 -6 6 C-2 1 -2 1 0 0 Z " fill="#1A1819" transform="translate(148,75)"/>
<path d="M0 0 C3.3 0 6.6 0 10 0 C9.67 0.66 9.34 1.32 9 2 C8.92966231 3.87379605 8.9156978 5.75001102 8.9375 7.625 C8.95103516 9.12933594 8.95103516 9.12933594 8.96484375 10.6640625 C8.97644531 11.43492188 8.98804688 12.20578125 9 13 C8.01 12.67 7.02 12.34 6 12 C6 8.7 6 5.4 6 2 C5.34 2 4.68 2 4 2 C3.01 4.31 2.02 6.62 1 9 C-0.2077558 5.37673261 0.45688872 4.35853631 2 1 C1.34 0.67 0.68 0.34 0 0 Z " fill="#656465" transform="translate(155,13)"/>
<path d="M0 0 C0.66 0.33 1.32 0.66 2 1 C1.70100785 4.58790575 1.23013399 5.78166776 -1.4375 8.3125 C-4 10 -4 10 -6 10 C-5.8125 7.625 -5.8125 7.625 -5 5 C-2.4375 3.6875 -2.4375 3.6875 0 3 C0 2.01 0 1.02 0 0 Z " fill="#666769" transform="translate(97,108)"/>
<path d="M0 0 C5.28 0 10.56 0 16 0 C16 0.66 16 1.32 16 2 C12.20732808 2.9360342 9.06325435 2.98276252 5.1875 2.5625 C4.21167969 2.46066406 3.23585937 2.35882813 2.23046875 2.25390625 C1.12638672 2.12822266 1.12638672 2.12822266 0 2 C0 1.34 0 0.68 0 0 Z " fill="#3B3839" transform="translate(247,37)"/>
<path d="M0 0 C0.89203125 0.10183594 1.7840625 0.20367187 2.703125 0.30859375 C3.37859375 0.39238281 4.0540625 0.47617187 4.75 0.5625 C2.97555028 2.80856427 2.16647515 3.51331002 -0.73046875 3.85546875 C-2.07044922 3.80326172 -2.07044922 3.80326172 -3.4375 3.75 C-4.78908203 3.70939453 -4.78908203 3.70939453 -6.16796875 3.66796875 C-6.85503906 3.63316406 -7.54210937 3.59835938 -8.25 3.5625 C-8.58 2.5725 -8.91 1.5825 -9.25 0.5625 C-5.98086376 -0.46865279 -3.38958652 -0.4013984 0 0 Z " fill="#434141" transform="translate(342.25,36.4375)"/>
<path d="M0 0 C-1.625 2 -1.625 2 -4 4 C-7.25 4.25 -7.25 4.25 -10 4 C-9 1 -9 1 -7.25 -0.25 C-4.47275102 -1.17574966 -2.78428335 -0.77341204 0 0 Z " fill="#595A5C" transform="translate(105,115)"/>
<path d="M0 0 C0.33 0.99 0.66 1.98 1 3 C3.01508358 3.73323796 3.01508358 3.73323796 5 4 C4.67 5.65 4.34 7.3 4 9 C2.68 9 1.36 9 0 9 C0 6.03 0 3.06 0 0 Z " fill="#979798" transform="translate(204,105)"/>
<path d="M0 0 C3.63 0 7.26 0 11 0 C11.33 1.32 11.66 2.64 12 4 C11.67 3.34 11.34 2.68 11 2 C7.39007621 2.65585189 7.39007621 2.65585189 4 4 C1.875 3.0625 1.875 3.0625 0 2 C0 1.34 0 0.68 0 0 Z " fill="#353233" transform="translate(269,37)"/>
<path d="M0 0 C0.66 0 1.32 0 2 0 C2.02578125 0.69867188 2.0515625 1.39734375 2.078125 2.1171875 C2.13484375 3.02726562 2.1915625 3.93734375 2.25 4.875 C2.29640625 5.77992187 2.3428125 6.68484375 2.390625 7.6171875 C2.75611148 10.17110544 2.75611148 10.17110544 5.046875 11.3203125 C5.69140625 11.54460937 6.3359375 11.76890625 7 12 C5.00045254 12.04254356 2.99958364 12.04080783 1 12 C0 11 0 11 -0.09765625 8.49609375 C-0.08605469 7.48675781 -0.07445312 6.47742188 -0.0625 5.4375 C-0.05347656 4.42558594 -0.04445312 3.41367188 -0.03515625 2.37109375 C-0.02355469 1.58863281 -0.01195312 0.80617188 0 0 Z " fill="#6D6E70" transform="translate(221,104)"/>
<path d="M0 0 C0.99 0 1.98 0 3 0 C3.33 0.99 3.66 1.98 4 3 C4.66 3.33 5.32 3.66 6 4 C6 6.64 6 9.28 6 12 C4.68 11.67 3.36 11.34 2 11 C2.04125 9.9275 2.0825 8.855 2.125 7.75 C2.0114175 4.34252515 1.78726636 2.79260369 0 0 Z " fill="#6A6B6D" transform="translate(343,104)"/>
<path d="M0 0 C0.99 0.33 1.98 0.66 3 1 C2.7525 1.845625 2.505 2.69125 2.25 3.5625 C1.90734822 8.27396201 3.43198614 10.1090699 6 14 C1.79373966 12.49776416 0.26099979 9.71449966 -2 6 C-1.34 5.67 -0.68 5.34 0 5 C0 3.35 0 1.7 0 0 Z " fill="#666668" transform="translate(297,104)"/>
<path d="M0 0 C1.95766281 -0.08082094 3.91626728 -0.13910778 5.875 -0.1875 C7.51082031 -0.23970703 7.51082031 -0.23970703 9.1796875 -0.29296875 C10.11039063 -0.19628906 11.04109375 -0.09960938 12 0 C12.66 0.99 13.32 1.98 14 3 C12.22925083 3.02705729 10.45838289 3.04642195 8.6875 3.0625 C7.70136719 3.07410156 6.71523437 3.08570313 5.69921875 3.09765625 C3 3 3 3 0 2 C0 1.34 0 0.68 0 0 Z " fill="#3E3B3D" transform="translate(140,37)"/>
<path d="M0 0 C-1.6875 2.5 -1.6875 2.5 -4 5 C-6.75 5.3125 -6.75 5.3125 -9 5 C-6.81610567 0.16423399 -5.20641855 -0.13701101 0 0 Z " fill="#5C5D5F" transform="translate(113,108)"/>
<path d="M0 0 C0.33 0.99 0.66 1.98 1 3 C3.00016466 4.20882096 3.00016466 4.20882096 5 5 C5 6.32 5 7.64 5 9 C2.53199953 7.84826645 0.95216435 6.95216435 -1 5 C-0.625 2.375 -0.625 2.375 0 0 Z " fill="#616264" transform="translate(52,103)"/>
<path d="M0 0 C0.86625 0.12375 1.7325 0.2475 2.625 0.375 C4.4375 2.875 4.4375 2.875 5.625 5.375 C0.08653846 4.75961538 0.08653846 4.75961538 -2.25 2.8125 C-2.62125 2.338125 -2.9925 1.86375 -3.375 1.375 C-2.375 0.375 -2.375 0.375 0 0 Z " fill="#5B5C5E" transform="translate(55.375,113.625)"/>
<path d="M0 0 C1.32 0.33 2.64 0.66 4 1 C4 2.98 4 4.96 4 7 C2.68 7 1.36 7 0 7 C0 4.69 0 2.38 0 0 Z " fill="#FBFBFB" transform="translate(143,106)"/>
<path d="M0 0 C0.33 1.32 0.66 2.64 1 4 C-1.97 6.475 -1.97 6.475 -5 9 C-5.3125 6.75 -5.3125 6.75 -5 4 C-2.5 1.6875 -2.5 1.6875 0 0 Z " fill="#58595B" transform="translate(105,104)"/>
<path d="M0 0 C5.5 -0.36666667 5.5 -0.36666667 7.875 1.375 C9 3 9 3 9 5 C4.68607774 4.5206753 2.83430453 3.2542015 0 0 Z " fill="#545557" transform="translate(44,108)"/>
<path d="M0 0 C0.99 0 1.98 0 3 0 C2.88648483 1.81325551 2.75887039 3.62563357 2.625 5.4375 C2.55539063 6.44683594 2.48578125 7.45617187 2.4140625 8.49609375 C2.27742187 9.32238281 2.14078125 10.14867188 2 11 C1.01 11.495 1.01 11.495 0 12 C0 8.04 0 4.08 0 0 Z " fill="#A4A4A5" transform="translate(228,103)"/>
<path d="M0 0 C0.66 0.99 1.32 1.98 2 3 C-0.71182212 5.60334924 -1.89133813 5.99456691 -5.75 6.1875 C-6.8225 6.125625 -7.895 6.06375 -9 6 C-6 4 -3 2 0 0 Z " fill="#191516" transform="translate(347,76)"/>
<path d="M0 0 C0.66 0.33 1.32 0.66 2 1 C1.01 3.97 0.02 6.94 -1 10 C-1.66 9.67 -2.32 9.34 -3 9 C-2.5020163 5.26512223 -2.12508244 3.18762365 0 0 Z " fill="#1C1819" transform="translate(305,45)"/>
<path d="M0 0 C3.63 0 7.26 0 11 0 C11 0.66 11 1.32 11 2 C7.32589215 3.17571451 3.83070817 3.07366746 0 3 C0 2.01 0 1.02 0 0 Z " fill="#3B3839" transform="translate(229,37)"/>
<path d="M0 0 C0.268125 0.61875 0.53625 1.2375 0.8125 1.875 C1.95556848 4.2995233 1.95556848 4.2995233 5 6 C3.88625 6.45375 2.7725 6.9075 1.625 7.375 C-1.96199008 8.72465986 -1.96199008 8.72465986 -4 11 C-4 7.38792603 -2.8848962 6.01583392 -1 3 C-0.67 2.01 -0.34 1.02 0 0 Z " fill="#CECECE" transform="translate(107,102)"/>
<path d="M0 0 C3.63 0 7.26 0 11 0 C11 0.66 11 1.32 11 2 C7.01803543 3.05404945 4.01804691 2.84098656 0 2 C0 1.34 0 0.68 0 0 Z " fill="#3C393A" transform="translate(308,37)"/>
<path d="M0 0 C2 1 4 2 6 3 C6.33 2.01 6.66 1.02 7 0 C7.66 1.98 8.32 3.96 9 6 C2.35384615 4.52307692 2.35384615 4.52307692 0.5625 1.875 C0.376875 1.25625 0.19125 0.6375 0 0 Z " fill="#CFCFD0" transform="translate(51,109)"/>
<path d="M0 0 C-1.75 2 -1.75 2 -4 4 C-5.32 4 -6.64 4 -8 4 C-5.97675095 -0.48005146 -4.79569304 -1.43870791 0 0 Z " fill="#646567" transform="translate(120,101)"/>
<path d="M0 0 C0.99 0.33 1.98 0.66 3 1 C3.33 2.65 3.66 4.3 4 6 C2.68 6.33 1.36 6.66 0 7 C0 4.69 0 2.38 0 0 Z " fill="#A7A8A9" transform="translate(190,107)"/>
<path d="M0 0 C3.27642756 0.25866533 4.60820723 0.55416685 6.8125 3.0625 C7.204375 3.701875 7.59625 4.34125 8 5 C4.17902761 4.46930939 1.93828597 3.50298434 -1 1 C-0.67 0.67 -0.34 0.34 0 0 Z " fill="#616264" transform="translate(38,100)"/>
<path d="M0 0 C2.375 0.1875 2.375 0.1875 5 1 C6.3125 3.5625 6.3125 3.5625 7 6 C5.1875 5.8125 5.1875 5.8125 3 5 C1.25 2.4375 1.25 2.4375 0 0 Z " fill="#636466" transform="translate(33,92)"/>
<path d="M0 0 C0.33 0 0.66 0 1 0 C1.33 4.29 1.66 8.58 2 13 C1.01 13 0.02 13 -1 13 C-0.67 8.71 -0.34 4.42 0 0 Z " fill="#525355" transform="translate(118,59)"/>
<path d="M0 0 C0.0825 0.61875 0.165 1.2375 0.25 1.875 C0.4975 2.57625 0.745 3.2775 1 4 C1.66 4.309375 2.32 4.61875 3 4.9375 C3.99 5.4634375 3.99 5.4634375 5 6 C5.75 8.625 5.75 8.625 6 11 C3.66666667 8.66666667 1.33333333 6.33333333 -1 4 C-0.625 1.875 -0.625 1.875 0 0 Z " fill="#363535" transform="translate(141,14)"/>
<path d="M0 0 C0.66 0.33 1.32 0.66 2 1 C1.50168276 4.68754757 0.89932357 6.60490662 -2 9 C-2.20140476 5.37471432 -1.85776765 3.13498292 0 0 Z " fill="#5C5D5F" transform="translate(116,90)"/>
<path d="M0 0 C2.97 0.495 2.97 0.495 6 1 C5.67 2.32 5.34 3.64 5 5 C2.525 4.01 2.525 4.01 0 3 C-0.33 3.66 -0.66 4.32 -1 5 C-0.67 3.35 -0.34 1.7 0 0 Z " fill="#8C8C8D" transform="translate(174,108)"/>
<path d="M0 0 C0.99 0.33 1.98 0.66 3 1 C1.68 2.65 0.36 4.3 -1 6 C-1.99 5.67 -2.98 5.34 -4 5 C-2.68 3.35 -1.36 1.7 0 0 Z " fill="#575759" transform="translate(121,92)"/>
<path d="M0 0 C0.66 0 1.32 0 2 0 C2.69965443 1.26418246 3.38434763 2.53665402 4.0625 3.8125 C4.63677734 4.87404297 4.63677734 4.87404297 5.22265625 5.95703125 C6 8 6 8 5 11 C2.77174356 8.77174356 2.30760631 7.34238372 1.375 4.375 C1.11460937 3.55773437 0.85421875 2.74046875 0.5859375 1.8984375 C0.39257812 1.27195312 0.19921875 0.64546875 0 0 Z " fill="#302F2F" transform="translate(149,14)"/>
<path d="M0 0 C2 1 4 2 6 3 C5.67 3.66 5.34 4.32 5 5 C2.35139573 5.59355614 -0.29197322 5.74209269 -3 6 C-2.01 4.02 -1.02 2.04 0 0 Z " fill="#EAEAEA" transform="translate(99,110)"/>
<path d="M0 0 C0.33 0.66 0.66 1.32 1 2 C0.06421005 4.35981813 -0.93347808 6.69631264 -2 9 C-2.33 9 -2.66 9 -3 9 C-3.1875 5.625 -3.1875 5.625 -3 2 C-2.01 1.34 -1.02 0.68 0 0 Z " fill="#1F1A1C" transform="translate(220,64)"/>
<path d="M0 0 C2.12046792 3.53411321 2.53199289 6.94393835 3 11 C1.5 10 1.5 10 0 8 C-0.27345479 5.28153765 -0.13491285 2.74322801 0 0 Z " fill="#3C393A" transform="translate(272,64)"/>
<path d="M0 0 C1.98 0 3.96 0 6 0 C6 0.99 6 1.98 6 3 C5.01 3.33 4.02 3.66 3 4 C1.97895449 3.02149805 0.9793879 2.02019573 0 1 C0 0.67 0 0.34 0 0 Z " fill="#242021" transform="translate(69,107)"/>
<path d="M0 0 C1.875 0.1875 1.875 0.1875 4 1 C5.25 3.5625 5.25 3.5625 6 6 C3.37812506 4.95125002 2.20628639 4.35068687 0.75 1.875 C0.5025 1.25625 0.255 0.6375 0 0 Z " fill="#5B5C5E" transform="translate(29,83)"/>
<path d="M0 0 C0.33 0.66 0.66 1.32 1 2 C1.99 2 2.98 2 4 2 C4 1.34 4 0.68 4 0 C4.66 0 5.32 0 6 0 C5.67 1.65 5.34 3.3 5 5 C2.525 4.01 2.525 4.01 0 3 C0 2.01 0 1.02 0 0 Z " fill="#C5C5C5" transform="translate(354,28)"/>
</svg>
